{
	"asset":{
		"generator":"Khronos glTF Blender I/O v4.0.44",
		"version":"2.0"
	},
	"scene":0,
	"scenes":[
		{
			"name":"Scene",
			"nodes":[
				0,
				1
			]
		}
	],
	"nodes":[
		{
			"mesh":0,
			"name":"floor",
			"rotation":[
				0,
				0.7071067094802856,
				0,
				0.7071068286895752
			],
			"scale":[
				0.9978072047233582,
				0.020470643416047096,
				1.0000369548797607
			],
			"translation":[
				0,
				-0.9776597619056702,
				0
			]
		},
		{
			"mesh":1,
			"name":"Text",
			"rotation":[
				0,
				1,
				0,
				7.549790126404332e-08
			],
			"scale":[
				0.8461397290229797,
				0.8461397290229797,
				0.8461397290229797
			],
			"translation":[
				0.02682057023048401,
				0.010569155216217041,
				0.03558272123336792
			]
		}
	],
	"materials":[
		{
			"doubleSided":true,
			"name":"core",
			"pbrMetallicRoughness":{
				"baseColorFactor":[
					0.3771147131919861,
					0.3771147131919861,
					0.3771147131919861,
					1
				],
				"metallicFactor":0,
				"roughnessFactor":0
			}
		},
		{
			"doubleSided":true,
			"name":"txt",
			"pbrMetallicRoughness":{
				"baseColorFactor":[
					0.8000315427780151,
					0.4100392460823059,
					0.1273997277021408,
					1
				],
				"metallicFactor":0,
				"roughnessFactor":0.5
			}
		}
	],
	"meshes":[
		{
			"name":"Cube.004",
			"primitives":[
				{
					"attributes":{
						"POSITION":0,
						"NORMAL":1,
						"TEXCOORD_0":2
					},
					"indices":3,
					"material":0
				}
			]
		},
		{
			"name":"sdfg",
			"primitives":[
				{
					"attributes":{
						"POSITION":4,
						"NORMAL":5,
						"TEXCOORD_0":6
					},
					"indices":7,
					"material":1
				}
			]
		}
	],
	"accessors":[
		{
			"bufferView":0,
			"componentType":5126,
			"count":33,
			"max":[
				1,
				-0.5363864898681641,
				1
			],
			"min":[
				-1,
				-1,
				-1
			],
			"type":"VEC3"
		},
		{
			"bufferView":1,
			"componentType":5126,
			"count":33,
			"type":"VEC3"
		},
		{
			"bufferView":2,
			"componentType":5126,
			"count":33,
			"type":"VEC2"
		},
		{
			"bufferView":3,
			"componentType":5123,
			"count":66,
			"type":"SCALAR"
		},
		{
			"bufferView":4,
			"componentType":5126,
			"count":628,
			"max":[
				0.23149140179157257,
				0.019999999552965164,
				0.36468055844306946
			],
			"min":[
				-0.24050860106945038,
				-0.019999999552965164,
				-0.3663386106491089
			],
			"type":"VEC3"
		},
		{
			"bufferView":5,
			"componentType":5126,
			"count":628,
			"type":"VEC3"
		},
		{
			"bufferView":6,
			"componentType":5126,
			"count":628,
			"type":"VEC2"
		},
		{
			"bufferView":7,
			"componentType":5123,
			"count":2658,
			"type":"SCALAR"
		}
	],
	"bufferViews":[
		{
			"buffer":0,
			"byteLength":396,
			"byteOffset":0,
			"target":34962
		},
		{
			"buffer":0,
			"byteLength":396,
			"byteOffset":396,
			"target":34962
		},
		{
			"buffer":0,
			"byteLength":264,
			"byteOffset":792,
			"target":34962
		},
		{
			"buffer":0,
			"byteLength":132,
			"byteOffset":1056,
			"target":34963
		},
		{
			"buffer":0,
			"byteLength":7536,
			"byteOffset":1188,
			"target":34962
		},
		{
			"buffer":0,
			"byteLength":7536,
			"byteOffset":8724,
			"target":34962
		},
		{
			"buffer":0,
			"byteLength":5024,
			"byteOffset":16260,
			"target":34962
		},
		{
			"buffer":0,
			"byteLength":5316,
			"byteOffset":21284,
			"target":34963
		}
	],
	"buffers":[
		{
			"byteLength":26600,
			"uri":"side2.bin"
		}
	]
}
