{
	"asset":{
		"generator":"Khronos glTF Blender I/O v4.0.44",
		"version":"2.0"
	},
	"scene":0,
	"scenes":[
		{
			"name":"Scene",
			"nodes":[
				0,
				5
			]
		}
	],
	"nodes":[
		{
			"mesh":0,
			"name":"floor",
			"rotation":[
				0,
				0.7071067094802856,
				0,
				0.7071068286895752
			],
			"scale":[
				0.9978072047233582,
				0.020470643416047096,
				1.0000369548797607
			],
			"translation":[
				0,
				-0.9776597619056702,
				0
			]
		},
		{
			"mesh":1,
			"name":"Cube.001",
			"scale":[
				0.0212063230574131,
				0.0031257339287549257,
				0.0212063230574131
			],
			"translation":[
				0.33529824018478394,
				-0.006618797779083252,
				-0.33160433173179626
			]
		},
		{
			"mesh":2,
			"name":"Cube.002",
			"scale":[
				0.0212063230574131,
				0.0031257339287549257,
				0.0212063230574131
			],
			"translation":[
				-0.33809635043144226,
				-0.006618797779083252,
				-0.33160433173179626
			]
		},
		{
			"mesh":3,
			"name":"Cube.003",
			"scale":[
				0.0212063230574131,
				0.0031257339287549257,
				0.0212063230574131
			],
			"translation":[
				0.33529824018478394,
				-0.006618797779083252,
				0.3351319432258606
			]
		},
		{
			"mesh":4,
			"name":"Cube.004",
			"scale":[
				0.0212063230574131,
				0.0031257339287549257,
				0.0212063230574131
			],
			"translation":[
				-0.33809635043144226,
				-0.006618797779083252,
				0.3351319432258606
			]
		},
		{
			"children":[
				1,
				2,
				3,
				4
			],
			"mesh":5,
			"name":"Cube",
			"scale":[
				0.6869500279426575,
				0.6869500279426575,
				0.6869500279426575
			],
			"translation":[
				-0.0022656091023236513,
				-0.15692585706710815,
				0.00302437087520957
			]
		}
	],
	"animations":[
		{
			"channels":[
				{
					"sampler":0,
					"target":{
						"node":5,
						"path":"translation"
					}
				},
				{
					"sampler":1,
					"target":{
						"node":5,
						"path":"rotation"
					}
				},
				{
					"sampler":2,
					"target":{
						"node":5,
						"path":"scale"
					}
				},
				{
					"sampler":3,
					"target":{
						"node":1,
						"path":"rotation"
					}
				},
				{
					"sampler":4,
					"target":{
						"node":2,
						"path":"rotation"
					}
				},
				{
					"sampler":5,
					"target":{
						"node":3,
						"path":"rotation"
					}
				},
				{
					"sampler":6,
					"target":{
						"node":4,
						"path":"rotation"
					}
				}
			],
			"name":"Animation",
			"samplers":[
				{
					"input":47,
					"interpolation":"LINEAR",
					"output":48
				},
				{
					"input":47,
					"interpolation":"LINEAR",
					"output":49
				},
				{
					"input":50,
					"interpolation":"STEP",
					"output":51
				},
				{
					"input":52,
					"interpolation":"LINEAR",
					"output":53
				},
				{
					"input":47,
					"interpolation":"LINEAR",
					"output":54
				},
				{
					"input":47,
					"interpolation":"LINEAR",
					"output":55
				},
				{
					"input":47,
					"interpolation":"LINEAR",
					"output":56
				}
			]
		}
	],
	"materials":[
		{
			"doubleSided":true,
			"name":"core",
			"pbrMetallicRoughness":{
				"baseColorFactor":[
					0.0038933190517127514,
					0.00913301482796669,
					0.3770747780799866,
					1
				],
				"metallicFactor":0,
				"roughnessFactor":0
			}
		}
	],
	"meshes":[
		{
			"name":"Cube.004",
			"primitives":[
				{
					"attributes":{
						"POSITION":0,
						"NORMAL":1,
						"TEXCOORD_0":2
					},
					"indices":3,
					"material":0
				}
			]
		},
		{
			"name":"Cube.005",
			"primitives":[
				{
					"attributes":{
						"POSITION":4,
						"NORMAL":5,
						"TEXCOORD_0":6
					},
					"indices":7,
					"material":0
				},
				{
					"attributes":{
						"POSITION":8,
						"NORMAL":9,
						"TEXCOORD_0":10
					},
					"indices":11,
					"material":0
				},
				{
					"attributes":{
						"POSITION":12,
						"NORMAL":13,
						"TEXCOORD_0":14
					},
					"indices":15,
					"material":0
				}
			]
		},
		{
			"name":"Cube.011",
			"primitives":[
				{
					"attributes":{
						"POSITION":16,
						"NORMAL":17,
						"TEXCOORD_0":18
					},
					"indices":7,
					"material":0
				},
				{
					"attributes":{
						"POSITION":19,
						"NORMAL":20,
						"TEXCOORD_0":21
					},
					"indices":11,
					"material":0
				},
				{
					"attributes":{
						"POSITION":22,
						"NORMAL":23,
						"TEXCOORD_0":24
					},
					"indices":15,
					"material":0
				}
			]
		},
		{
			"name":"Cube.012",
			"primitives":[
				{
					"attributes":{
						"POSITION":25,
						"NORMAL":26,
						"TEXCOORD_0":27
					},
					"indices":7,
					"material":0
				},
				{
					"attributes":{
						"POSITION":28,
						"NORMAL":29,
						"TEXCOORD_0":30
					},
					"indices":11,
					"material":0
				},
				{
					"attributes":{
						"POSITION":31,
						"NORMAL":32,
						"TEXCOORD_0":33
					},
					"indices":15,
					"material":0
				}
			]
		},
		{
			"name":"Cube.013",
			"primitives":[
				{
					"attributes":{
						"POSITION":34,
						"NORMAL":35,
						"TEXCOORD_0":36
					},
					"indices":7,
					"material":0
				},
				{
					"attributes":{
						"POSITION":37,
						"NORMAL":38,
						"TEXCOORD_0":39
					},
					"indices":11,
					"material":0
				},
				{
					"attributes":{
						"POSITION":40,
						"NORMAL":41,
						"TEXCOORD_0":42
					},
					"indices":15,
					"material":0
				}
			]
		},
		{
			"name":"Cube",
			"primitives":[
				{
					"attributes":{
						"POSITION":43,
						"NORMAL":44,
						"TEXCOORD_0":45
					},
					"indices":46,
					"material":0
				}
			]
		}
	],
	"accessors":[
		{
			"bufferView":0,
			"componentType":5126,
			"count":33,
			"max":[
				1,
				-0.5363864898681641,
				1
			],
			"min":[
				-1,
				-1,
				-1
			],
			"type":"VEC3"
		},
		{
			"bufferView":1,
			"componentType":5126,
			"count":33,
			"type":"VEC3"
		},
		{
			"bufferView":2,
			"componentType":5126,
			"count":33,
			"type":"VEC2"
		},
		{
			"bufferView":3,
			"componentType":5123,
			"count":66,
			"type":"SCALAR"
		},
		{
			"bufferView":4,
			"componentType":5126,
			"count":152,
			"max":[
				9.64505386352539,
				10.149202346801758,
				1.27909517288208
			],
			"min":[
				-1.27909517288208,
				-2.58660626411438,
				-1.3931819200515747
			],
			"type":"VEC3"
		},
		{
			"bufferView":5,
			"componentType":5126,
			"count":152,
			"type":"VEC3"
		},
		{
			"bufferView":6,
			"componentType":5126,
			"count":152,
			"type":"VEC2"
		},
		{
			"bufferView":7,
			"componentType":5123,
			"count":270,
			"type":"SCALAR"
		},
		{
			"bufferView":8,
			"componentType":5126,
			"count":130,
			"max":[
				1.3931819200515747,
				10.149202346801758,
				9.64505386352539
			],
			"min":[
				-9.64505386352539,
				-2.58660626411438,
				-1
			],
			"type":"VEC3"
		},
		{
			"bufferView":9,
			"componentType":5126,
			"count":130,
			"type":"VEC3"
		},
		{
			"bufferView":10,
			"componentType":5126,
			"count":130,
			"type":"VEC2"
		},
		{
			"bufferView":11,
			"componentType":5123,
			"count":234,
			"type":"SCALAR"
		},
		{
			"bufferView":12,
			"componentType":5126,
			"count":62,
			"max":[
				1,
				10.149202346801758,
				-0.9044568538665771
			],
			"min":[
				-1.3931819200515747,
				-2.58660626411438,
				-9.64505386352539
			],
			"type":"VEC3"
		},
		{
			"bufferView":13,
			"componentType":5126,
			"count":62,
			"type":"VEC3"
		},
		{
			"bufferView":14,
			"componentType":5126,
			"count":62,
			"type":"VEC2"
		},
		{
			"bufferView":15,
			"componentType":5123,
			"count":108,
			"type":"SCALAR"
		},
		{
			"bufferView":16,
			"componentType":5126,
			"count":152,
			"max":[
				9.64505386352539,
				10.149202346801758,
				1.27909517288208
			],
			"min":[
				-1.27909517288208,
				-2.58660626411438,
				-1.3931819200515747
			],
			"type":"VEC3"
		},
		{
			"bufferView":17,
			"componentType":5126,
			"count":152,
			"type":"VEC3"
		},
		{
			"bufferView":18,
			"componentType":5126,
			"count":152,
			"type":"VEC2"
		},
		{
			"bufferView":19,
			"componentType":5126,
			"count":130,
			"max":[
				1.3931819200515747,
				10.149202346801758,
				9.64505386352539
			],
			"min":[
				-9.64505386352539,
				-2.58660626411438,
				-1
			],
			"type":"VEC3"
		},
		{
			"bufferView":20,
			"componentType":5126,
			"count":130,
			"type":"VEC3"
		},
		{
			"bufferView":21,
			"componentType":5126,
			"count":130,
			"type":"VEC2"
		},
		{
			"bufferView":22,
			"componentType":5126,
			"count":62,
			"max":[
				1,
				10.149202346801758,
				-0.9044568538665771
			],
			"min":[
				-1.3931819200515747,
				-2.58660626411438,
				-9.64505386352539
			],
			"type":"VEC3"
		},
		{
			"bufferView":23,
			"componentType":5126,
			"count":62,
			"type":"VEC3"
		},
		{
			"bufferView":24,
			"componentType":5126,
			"count":62,
			"type":"VEC2"
		},
		{
			"bufferView":25,
			"componentType":5126,
			"count":152,
			"max":[
				9.64505386352539,
				10.149202346801758,
				1.27909517288208
			],
			"min":[
				-1.27909517288208,
				-2.58660626411438,
				-1.3931819200515747
			],
			"type":"VEC3"
		},
		{
			"bufferView":26,
			"componentType":5126,
			"count":152,
			"type":"VEC3"
		},
		{
			"bufferView":27,
			"componentType":5126,
			"count":152,
			"type":"VEC2"
		},
		{
			"bufferView":28,
			"componentType":5126,
			"count":130,
			"max":[
				1.3931819200515747,
				10.149202346801758,
				9.64505386352539
			],
			"min":[
				-9.64505386352539,
				-2.58660626411438,
				-1
			],
			"type":"VEC3"
		},
		{
			"bufferView":29,
			"componentType":5126,
			"count":130,
			"type":"VEC3"
		},
		{
			"bufferView":30,
			"componentType":5126,
			"count":130,
			"type":"VEC2"
		},
		{
			"bufferView":31,
			"componentType":5126,
			"count":62,
			"max":[
				1,
				10.149202346801758,
				-0.9044568538665771
			],
			"min":[
				-1.3931819200515747,
				-2.58660626411438,
				-9.64505386352539
			],
			"type":"VEC3"
		},
		{
			"bufferView":32,
			"componentType":5126,
			"count":62,
			"type":"VEC3"
		},
		{
			"bufferView":33,
			"componentType":5126,
			"count":62,
			"type":"VEC2"
		},
		{
			"bufferView":34,
			"componentType":5126,
			"count":152,
			"max":[
				9.64505386352539,
				10.149202346801758,
				1.27909517288208
			],
			"min":[
				-1.27909517288208,
				-2.58660626411438,
				-1.3931819200515747
			],
			"type":"VEC3"
		},
		{
			"bufferView":35,
			"componentType":5126,
			"count":152,
			"type":"VEC3"
		},
		{
			"bufferView":36,
			"componentType":5126,
			"count":152,
			"type":"VEC2"
		},
		{
			"bufferView":37,
			"componentType":5126,
			"count":130,
			"max":[
				1.3931819200515747,
				10.149202346801758,
				9.64505386352539
			],
			"min":[
				-9.64505386352539,
				-2.58660626411438,
				-1
			],
			"type":"VEC3"
		},
		{
			"bufferView":38,
			"componentType":5126,
			"count":130,
			"type":"VEC3"
		},
		{
			"bufferView":39,
			"componentType":5126,
			"count":130,
			"type":"VEC2"
		},
		{
			"bufferView":40,
			"componentType":5126,
			"count":62,
			"max":[
				1,
				10.149202346801758,
				-0.9044568538665771
			],
			"min":[
				-1.3931819200515747,
				-2.58660626411438,
				-9.64505386352539
			],
			"type":"VEC3"
		},
		{
			"bufferView":41,
			"componentType":5126,
			"count":62,
			"type":"VEC3"
		},
		{
			"bufferView":42,
			"componentType":5126,
			"count":62,
			"type":"VEC2"
		},
		{
			"bufferView":43,
			"componentType":5126,
			"count":1484,
			"max":[
				0.6076064109802246,
				0.13021846115589142,
				0.60718834400177
			],
			"min":[
				-0.6102676391601562,
				-0.2229839414358139,
				-0.6040274500846863
			],
			"type":"VEC3"
		},
		{
			"bufferView":44,
			"componentType":5126,
			"count":1484,
			"type":"VEC3"
		},
		{
			"bufferView":45,
			"componentType":5126,
			"count":1484,
			"type":"VEC2"
		},
		{
			"bufferView":46,
			"componentType":5123,
			"count":2646,
			"type":"SCALAR"
		},
		{
			"bufferView":47,
			"componentType":5126,
			"count":251,
			"max":[
				10.416666666666666
			],
			"min":[
				0
			],
			"type":"SCALAR"
		},
		{
			"bufferView":48,
			"componentType":5126,
			"count":251,
			"type":"VEC3"
		},
		{
			"bufferView":49,
			"componentType":5126,
			"count":251,
			"type":"VEC4"
		},
		{
			"bufferView":50,
			"componentType":5126,
			"count":2,
			"max":[
				10.416666666666666
			],
			"min":[
				0
			],
			"type":"SCALAR"
		},
		{
			"bufferView":51,
			"componentType":5126,
			"count":2,
			"type":"VEC3"
		},
		{
			"bufferView":52,
			"componentType":5126,
			"count":250,
			"max":[
				10.416666666666666
			],
			"min":[
				0.041666666666666664
			],
			"type":"SCALAR"
		},
		{
			"bufferView":53,
			"componentType":5126,
			"count":250,
			"type":"VEC4"
		},
		{
			"bufferView":54,
			"componentType":5126,
			"count":251,
			"type":"VEC4"
		},
		{
			"bufferView":55,
			"componentType":5126,
			"count":251,
			"type":"VEC4"
		},
		{
			"bufferView":56,
			"componentType":5126,
			"count":251,
			"type":"VEC4"
		}
	],
	"bufferViews":[
		{
			"buffer":0,
			"byteLength":396,
			"byteOffset":0,
			"target":34962
		},
		{
			"buffer":0,
			"byteLength":396,
			"byteOffset":396,
			"target":34962
		},
		{
			"buffer":0,
			"byteLength":264,
			"byteOffset":792,
			"target":34962
		},
		{
			"buffer":0,
			"byteLength":132,
			"byteOffset":1056,
			"target":34963
		},
		{
			"buffer":0,
			"byteLength":1824,
			"byteOffset":1188,
			"target":34962
		},
		{
			"buffer":0,
			"byteLength":1824,
			"byteOffset":3012,
			"target":34962
		},
		{
			"buffer":0,
			"byteLength":1216,
			"byteOffset":4836,
			"target":34962
		},
		{
			"buffer":0,
			"byteLength":540,
			"byteOffset":6052,
			"target":34963
		},
		{
			"buffer":0,
			"byteLength":1560,
			"byteOffset":6592,
			"target":34962
		},
		{
			"buffer":0,
			"byteLength":1560,
			"byteOffset":8152,
			"target":34962
		},
		{
			"buffer":0,
			"byteLength":1040,
			"byteOffset":9712,
			"target":34962
		},
		{
			"buffer":0,
			"byteLength":468,
			"byteOffset":10752,
			"target":34963
		},
		{
			"buffer":0,
			"byteLength":744,
			"byteOffset":11220,
			"target":34962
		},
		{
			"buffer":0,
			"byteLength":744,
			"byteOffset":11964,
			"target":34962
		},
		{
			"buffer":0,
			"byteLength":496,
			"byteOffset":12708,
			"target":34962
		},
		{
			"buffer":0,
			"byteLength":216,
			"byteOffset":13204,
			"target":34963
		},
		{
			"buffer":0,
			"byteLength":1824,
			"byteOffset":13420,
			"target":34962
		},
		{
			"buffer":0,
			"byteLength":1824,
			"byteOffset":15244,
			"target":34962
		},
		{
			"buffer":0,
			"byteLength":1216,
			"byteOffset":17068,
			"target":34962
		},
		{
			"buffer":0,
			"byteLength":1560,
			"byteOffset":18284,
			"target":34962
		},
		{
			"buffer":0,
			"byteLength":1560,
			"byteOffset":19844,
			"target":34962
		},
		{
			"buffer":0,
			"byteLength":1040,
			"byteOffset":21404,
			"target":34962
		},
		{
			"buffer":0,
			"byteLength":744,
			"byteOffset":22444,
			"target":34962
		},
		{
			"buffer":0,
			"byteLength":744,
			"byteOffset":23188,
			"target":34962
		},
		{
			"buffer":0,
			"byteLength":496,
			"byteOffset":23932,
			"target":34962
		},
		{
			"buffer":0,
			"byteLength":1824,
			"byteOffset":24428,
			"target":34962
		},
		{
			"buffer":0,
			"byteLength":1824,
			"byteOffset":26252,
			"target":34962
		},
		{
			"buffer":0,
			"byteLength":1216,
			"byteOffset":28076,
			"target":34962
		},
		{
			"buffer":0,
			"byteLength":1560,
			"byteOffset":29292,
			"target":34962
		},
		{
			"buffer":0,
			"byteLength":1560,
			"byteOffset":30852,
			"target":34962
		},
		{
			"buffer":0,
			"byteLength":1040,
			"byteOffset":32412,
			"target":34962
		},
		{
			"buffer":0,
			"byteLength":744,
			"byteOffset":33452,
			"target":34962
		},
		{
			"buffer":0,
			"byteLength":744,
			"byteOffset":34196,
			"target":34962
		},
		{
			"buffer":0,
			"byteLength":496,
			"byteOffset":34940,
			"target":34962
		},
		{
			"buffer":0,
			"byteLength":1824,
			"byteOffset":35436,
			"target":34962
		},
		{
			"buffer":0,
			"byteLength":1824,
			"byteOffset":37260,
			"target":34962
		},
		{
			"buffer":0,
			"byteLength":1216,
			"byteOffset":39084,
			"target":34962
		},
		{
			"buffer":0,
			"byteLength":1560,
			"byteOffset":40300,
			"target":34962
		},
		{
			"buffer":0,
			"byteLength":1560,
			"byteOffset":41860,
			"target":34962
		},
		{
			"buffer":0,
			"byteLength":1040,
			"byteOffset":43420,
			"target":34962
		},
		{
			"buffer":0,
			"byteLength":744,
			"byteOffset":44460,
			"target":34962
		},
		{
			"buffer":0,
			"byteLength":744,
			"byteOffset":45204,
			"target":34962
		},
		{
			"buffer":0,
			"byteLength":496,
			"byteOffset":45948,
			"target":34962
		},
		{
			"buffer":0,
			"byteLength":17808,
			"byteOffset":46444,
			"target":34962
		},
		{
			"buffer":0,
			"byteLength":17808,
			"byteOffset":64252,
			"target":34962
		},
		{
			"buffer":0,
			"byteLength":11872,
			"byteOffset":82060,
			"target":34962
		},
		{
			"buffer":0,
			"byteLength":5292,
			"byteOffset":93932,
			"target":34963
		},
		{
			"buffer":0,
			"byteLength":1004,
			"byteOffset":99224
		},
		{
			"buffer":0,
			"byteLength":3012,
			"byteOffset":100228
		},
		{
			"buffer":0,
			"byteLength":4016,
			"byteOffset":103240
		},
		{
			"buffer":0,
			"byteLength":8,
			"byteOffset":107256
		},
		{
			"buffer":0,
			"byteLength":24,
			"byteOffset":107264
		},
		{
			"buffer":0,
			"byteLength":1000,
			"byteOffset":107288
		},
		{
			"buffer":0,
			"byteLength":4000,
			"byteOffset":108288
		},
		{
			"buffer":0,
			"byteLength":4016,
			"byteOffset":112288
		},
		{
			"buffer":0,
			"byteLength":4016,
			"byteOffset":116304
		},
		{
			"buffer":0,
			"byteLength":4016,
			"byteOffset":120320
		}
	],
	"buffers":[
		{
			"byteLength":124336,
			"uri":"side5.bin"
		}
	]
}
