{
	"asset":{
		"generator":"Khronos glTF Blender I/O v4.0.44",
		"version":"2.0"
	},
	"scene":0,
	"scenes":[
		{
			"name":"Scene",
			"nodes":[
				0
			]
		}
	],
	"nodes":[
		{
			"mesh":0,
			"name":"Text",
			"rotation":[
				0,
				1,
				0,
				7.549790126404332e-08
			],
			"scale":[
				0.8461397290229797,
				0.8461397290229797,
				0.8461397290229797
			],
			"translation":[
				0.02682057023048401,
				0.010569155216217041,
				0.03558272123336792
			]
		}
	],
	"materials":[
		{
			"doubleSided":true,
			"name":"txt",
			"pbrMetallicRoughness":{
				"baseColorFactor":[
					0.8000315427780151,
					0.4100392460823059,
					0.1273997277021408,
					1
				],
				"metallicFactor":0,
				"roughnessFactor":0.5
			}
		}
	],
	"meshes":[
		{
			"name":"sdfg",
			"primitives":[
				{
					"attributes":{
						"POSITION":0,
						"NORMAL":1,
						"TEXCOORD_0":2
					},
					"indices":3,
					"material":0
				}
			]
		}
	],
	"accessors":[
		{
			"bufferView":0,
			"componentType":5126,
			"count":857,
			"max":[
				0.2305329293012619,
				0.019999999552965164,
				0.3737250566482544
			],
			"min":[
				-0.2305329442024231,
				-0.019999999552965164,
				-0.3737250566482544
			],
			"type":"VEC3"
		},
		{
			"bufferView":1,
			"componentType":5126,
			"count":857,
			"type":"VEC3"
		},
		{
			"bufferView":2,
			"componentType":5126,
			"count":857,
			"type":"VEC2"
		},
		{
			"bufferView":3,
			"componentType":5123,
			"count":3630,
			"type":"SCALAR"
		}
	],
	"bufferViews":[
		{
			"buffer":0,
			"byteLength":10284,
			"byteOffset":0,
			"target":34962
		},
		{
			"buffer":0,
			"byteLength":10284,
			"byteOffset":10284,
			"target":34962
		},
		{
			"buffer":0,
			"byteLength":6856,
			"byteOffset":20568,
			"target":34962
		},
		{
			"buffer":0,
			"byteLength":7260,
			"byteOffset":27424,
			"target":34963
		}
	],
	"buffers":[
		{
			"byteLength":34684,
			"uri":"side6.bin"
		}
	]
}
